<svg width="24" height="24" viewBox="0 0 24 24" fill="none" xmlns="http://www.w3.org/2000/svg">
<path d="M12 20.6468C6.66759 20.6468 2 17.7534 2 11.3234C2 4.89347 6.66759 2 12 2C17.3324 2 22 4.89347 22 11.3234C22 13.7647 21.3271 15.6963 20.2005 17.1531C19.8709 17.5793 19.74 18.1456 19.9681 18.6338C20.1071 18.9312 21.353 21.7309 21.5025 22L18.295 21.4413C16.8935 21.1604 15.7563 20.9237 14.627 20.6797C14.3541 20.5505 14.0505 20.5002 13.751 20.5382C13.1793 20.6109 12.5938 20.6468 12 20.6468Z" stroke="#6D758F" stroke-width="2" stroke-linecap="round"/>
</svg>
