<svg width="20" height="20" viewBox="0 0 20 20" fill="none" xmlns="http://www.w3.org/2000/svg">
<path d="M2.52137 13.6776L3.81196 13.8797C4.76468 14.0289 5.44507 14.9015 5.3749 15.8846L5.27981 17.217C5.25212 17.6052 5.45891 17.9706 5.80141 18.1397L6.75597 18.61C7.09846 18.779 7.50744 18.7157 7.78719 18.4523L8.74634 17.5458C9.45354 16.8771 10.5447 16.8771 11.2527 17.5458L12.2119 18.4523C12.4916 18.7168 12.8997 18.779 13.2431 18.61L14.1995 18.1388C14.5411 17.9706 14.747 17.6061 14.7193 17.219L14.6241 15.8846C14.554 14.9015 15.2344 14.0289 16.1871 13.8797L17.4777 13.6776C17.8534 13.6191 18.1562 13.331 18.2411 12.9514L18.4766 11.8957C18.5616 11.516 18.411 11.1222 18.0972 10.9031L17.0198 10.1485C16.2249 9.5914 15.9821 8.50352 16.4622 7.64884L17.113 6.49106C17.3023 6.15392 17.271 5.73179 17.0337 5.42771L16.3736 4.58062C16.1363 4.27653 15.7412 4.15094 15.3775 4.26521L14.1294 4.65617C13.2071 4.94514 12.224 4.46068 11.8694 3.54372L11.3912 2.30377C11.2508 1.94114 10.9084 1.70317 10.5271 1.7041L9.46913 1.70694C9.08786 1.70788 8.74634 1.94776 8.60787 2.31133L8.14161 3.5371C7.79082 4.45975 6.80305 4.94797 5.87803 4.65711L4.57821 4.24916C4.21355 4.13394 3.81658 4.26048 3.57933 4.56646L2.92387 5.41449C2.68662 5.7214 2.658 6.14448 2.85095 6.48161L3.51655 7.64223C4.00676 8.49777 3.76673 9.59609 2.96726 10.1562L1.90284 10.9022C1.58896 11.1222 1.43849 11.516 1.52342 11.8947L1.75883 12.9505C1.84284 13.331 2.14563 13.6191 2.52137 13.6776Z" stroke="#6D758F" stroke-width="1.5" stroke-linecap="round" stroke-linejoin="round"/>
<path d="M11.8647 8.33843C12.8947 9.36851 12.8947 11.0392 11.8647 12.0693C10.8346 13.0992 9.16392 13.0992 8.13384 12.0693C7.10383 11.0392 7.10383 9.36851 8.13384 8.33843C9.16392 7.30841 10.8346 7.30841 11.8647 8.33843Z" stroke="#6D758F" stroke-width="1.5" stroke-linecap="round" stroke-linejoin="round"/>
</svg>
