<svg width="24" height="24" viewBox="0 0 24 24" fill="none" xmlns="http://www.w3.org/2000/svg">
<mask id="path-1-inside-1_224_23192" fill="white">
<path d="M16.7057 4.04708C17.9971 4.11847 19.2079 4.69738 20.0744 5.65765C20.9408 6.61792 21.3925 7.8817 21.3312 9.17361C21.3312 12.1918 18.7257 14.0457 16.2253 16.269C13.7573 18.4727 12.428 19.6772 11.9977 19.9552C11.5291 19.6517 9.89229 18.1642 7.77015 16.269C5.25896 14.0368 2.66425 12.1652 2.66425 9.17361C2.60291 7.8817 3.05468 6.61792 3.92109 5.65765C4.7875 4.69738 5.99833 4.11847 7.28972 4.04708C8.0051 4.0254 8.71387 4.18972 9.34673 4.52397C9.9796 4.85823 10.5149 5.35098 10.9003 5.95406C11.7256 7.10846 11.8631 7.68615 12.0007 7.68615C12.1382 7.68615 12.2738 7.10846 13.0912 5.95111C13.4744 5.34524 14.0099 4.85054 14.6442 4.51642C15.2785 4.1823 15.9893 4.02047 16.7057 4.04708M16.7057 2.08214C15.8136 2.05358 14.9265 2.22665 14.1105 2.58846C13.2945 2.95027 12.5706 3.4915 11.9928 4.17186C11.4155 3.49349 10.6931 2.9535 9.87907 2.5918C9.06503 2.2301 8.18012 2.05592 7.28972 2.08214C5.47694 2.15303 3.76598 2.93884 2.53097 4.26774C1.29597 5.59664 0.637412 7.3605 0.699313 9.17361C0.699313 12.7203 3.20461 14.8985 5.6264 17.0039C5.90444 17.2456 6.18543 17.4892 6.46445 17.7378L7.47344 18.6397C8.57385 19.6868 9.72749 20.6765 10.9298 21.6048C11.2479 21.8108 11.6188 21.9204 11.9977 21.9204C12.3767 21.9204 12.7476 21.8108 13.0657 21.6048C14.3062 20.6481 15.4954 19.6266 16.6281 18.5444L17.5339 17.7349C17.8218 17.4794 18.1136 17.225 18.4034 16.9744C20.6965 14.9849 23.2961 12.7302 23.2961 9.17361C23.358 7.3605 22.6995 5.59664 21.4645 4.26774C20.2295 2.93884 18.5185 2.15303 16.7057 2.08214V2.08214Z"/>
</mask>
<path d="M21.3312 9.17361L20.3498 9.12702L20.3487 9.1503V9.17361H21.3312ZM16.2253 16.269L15.5724 15.5348L15.5709 15.5362L16.2253 16.269ZM11.9977 19.9552L11.4636 20.7798L11.997 21.1254L12.5309 20.7804L11.9977 19.9552ZM7.77015 16.269L8.42457 15.5362L8.42287 15.5347L7.77015 16.269ZM2.66425 9.17361H3.64672V9.1503L3.64562 9.12702L2.66425 9.17361ZM7.28972 4.04708L7.25996 3.06506L7.24772 3.06543L7.23549 3.06611L7.28972 4.04708ZM10.9003 5.95406L10.0724 6.48311L10.0862 6.50464L10.1011 6.52543L10.9003 5.95406ZM13.0912 5.95111L13.8937 6.5179L13.9081 6.49745L13.9215 6.4763L13.0912 5.95111ZM11.9928 4.17186L11.2446 4.80861L11.9936 5.68866L12.7417 4.80784L11.9928 4.17186ZM7.28972 2.08214L7.2608 1.10005L7.25133 1.10042L7.28972 2.08214ZM0.699313 9.17361H1.68178V9.15684L1.68121 9.14009L0.699313 9.17361ZM5.6264 17.0039L4.98181 17.7453L4.98185 17.7454L5.6264 17.0039ZM6.46445 17.7378L7.1192 17.0053L7.11797 17.0042L6.46445 17.7378ZM7.47344 18.6397L8.1507 17.928L8.13961 17.9174L8.1282 17.9072L7.47344 18.6397ZM10.9298 21.6048L10.3293 22.3824L10.3616 22.4074L10.3958 22.4295L10.9298 21.6048ZM13.0657 21.6048L13.5996 22.4295L13.6336 22.4075L13.6656 22.3828L13.0657 21.6048ZM16.6281 18.5444L15.9734 17.8119L15.9612 17.8227L15.9494 17.834L16.6281 18.5444ZM17.5339 17.7349L16.8818 17L16.8793 17.0023L17.5339 17.7349ZM18.4034 16.9744L19.0459 17.7177L19.0473 17.7165L18.4034 16.9744ZM23.2961 9.17361L22.3142 9.14009L22.3137 9.15684V9.17361H23.2961ZM16.7057 4.04708L16.6515 5.02805C17.684 5.08514 18.6522 5.54801 19.3449 6.3158L20.0744 5.65765L20.8038 4.9995C19.7637 3.84676 18.3102 3.15181 16.7599 3.06611L16.7057 4.04708ZM20.0744 5.65765L19.3449 6.3158C20.0377 7.08359 20.3989 8.09406 20.3498 9.12702L21.3312 9.17361L22.3126 9.2202C22.3862 7.66935 21.8439 6.15224 20.8038 4.9995L20.0744 5.65765ZM21.3312 9.17361H20.3487C20.3487 10.3642 19.8466 11.3626 18.9716 12.378C18.0644 13.4308 16.8809 14.3713 15.5724 15.5348L16.2253 16.269L16.8781 17.0032C18.07 15.9434 19.4395 14.8452 20.4602 13.6607C21.513 12.4388 22.3137 11.0012 22.3137 9.17361H21.3312ZM16.2253 16.269L15.5709 15.5362C14.3335 16.6411 13.3894 17.4885 12.6983 18.0967C11.9788 18.7299 11.6035 19.0403 11.4645 19.13L11.9977 19.9552L12.5309 20.7804C12.8223 20.5922 13.3267 20.1612 13.9965 19.5717C14.6946 18.9573 15.6491 18.1006 16.8797 17.0019L16.2253 16.269ZM11.9977 19.9552L12.5319 19.1307C12.3744 19.0287 11.9148 18.6434 11.154 17.9722C10.4238 17.3281 9.49014 16.4878 8.42457 15.5362L7.77015 16.269L7.11573 17.0018C8.17229 17.9454 9.1181 18.7965 9.85403 19.4457C10.5593 20.0679 11.1524 20.5782 11.4636 20.7798L11.9977 19.9552ZM7.77015 16.269L8.42287 15.5347C7.11198 14.3695 5.92611 13.4201 5.02085 12.366C4.14577 11.347 3.64672 10.3505 3.64672 9.17361H2.66425H1.68178C1.68178 10.9883 2.48009 12.4234 3.53016 13.6462C4.55005 14.8338 5.91713 15.9364 7.11743 17.0033L7.77015 16.269ZM2.66425 9.17361L3.64562 9.12702C3.59657 8.09406 3.95778 7.08359 4.65053 6.3158L3.92109 5.65765L3.19164 4.9995C2.15157 6.15224 1.60926 7.66935 1.68289 9.2202L2.66425 9.17361ZM3.92109 5.65765L4.65053 6.3158C5.34328 5.54801 6.31141 5.08514 7.34395 5.02805L7.28972 4.04708L7.23549 3.06611C5.68526 3.15181 4.23172 3.84675 3.19164 4.9995L3.92109 5.65765ZM7.28972 4.04708L7.31949 5.0291C7.86494 5.01257 8.40536 5.13786 8.88789 5.39272L9.34673 4.52397L9.80557 3.65523C9.02239 3.24158 8.14527 3.03823 7.25996 3.06506L7.28972 4.04708ZM9.34673 4.52397L8.88789 5.39272C9.37043 5.64758 9.77858 6.02328 10.0724 6.48311L10.9003 5.95406L11.7282 5.425C11.2512 4.67867 10.5888 4.06888 9.80557 3.65523L9.34673 4.52397ZM10.9003 5.95406L10.1011 6.52543C10.481 7.05686 10.6996 7.45058 10.8424 7.7171C10.9037 7.83147 10.9855 7.98962 11.0537 8.09864C11.0878 8.15323 11.1576 8.26096 11.2623 8.36294C11.3638 8.46181 11.615 8.66862 12.0007 8.66862V7.68615V6.70368C12.3519 6.70368 12.5687 6.89244 12.6332 6.95521C12.7008 7.02108 12.7308 7.07466 12.7198 7.05706C12.6977 7.02169 12.6678 6.96326 12.5743 6.78891C12.4077 6.47798 12.1449 6.00565 11.6995 5.38269L10.9003 5.95406ZM12.0007 7.68615V8.66862C12.3869 8.66862 12.6383 8.46128 12.7403 8.36155C12.8453 8.25896 12.9149 8.15065 12.949 8.0958C13.017 7.98607 13.0981 7.82768 13.159 7.71283C13.3007 7.44549 13.5173 7.05087 13.8937 6.5179L13.0912 5.95111L12.2887 5.38432C11.8477 6.0087 11.5878 6.4816 11.423 6.79244C11.3306 6.96668 11.3009 7.02505 11.2793 7.05981C11.2685 7.0772 11.2987 7.02306 11.3666 6.95659C11.4317 6.89297 11.6488 6.70368 12.0007 6.70368V7.68615ZM13.0912 5.95111L13.9215 6.4763C14.2128 6.01572 14.6199 5.63966 15.1021 5.38566L14.6442 4.51642L14.1863 3.64718C13.3999 4.06142 12.736 4.67476 12.2609 5.42592L13.0912 5.95111ZM14.6442 4.51642L15.1021 5.38566C15.5843 5.13167 16.1246 5.00864 16.6692 5.02887L16.7057 4.04708L16.7422 3.06529C15.854 3.03229 14.9727 3.23294 14.1863 3.64718L14.6442 4.51642ZM16.7057 2.08214L16.7372 1.10017C15.6973 1.06688 14.6633 1.2686 13.7122 1.69032L14.1105 2.58846L14.5087 3.4866C15.1896 3.18469 15.9298 3.04027 16.6743 3.06411L16.7057 2.08214ZM14.1105 2.58846L13.7122 1.69032C12.7611 2.11203 11.9174 2.74288 11.244 3.53587L11.9928 4.17186L12.7417 4.80784C13.2238 4.24013 13.8278 3.78851 14.5087 3.4866L14.1105 2.58846ZM11.9928 4.17186L12.741 3.5351C12.0683 2.74464 11.2266 2.11544 10.278 1.69397L9.87907 2.5918L9.48014 3.48963C10.1597 3.79157 10.7627 4.24233 11.2446 4.80861L11.9928 4.17186ZM9.87907 2.5918L10.278 1.69397C9.32945 1.2725 8.29833 1.06955 7.26081 1.1001L7.28972 2.08214L7.31864 3.06419C8.06191 3.0423 8.8006 3.18769 9.48014 3.48963L9.87907 2.5918ZM7.28972 2.08214L7.25133 1.10042C5.17902 1.18146 3.22311 2.07977 1.8113 3.59892L2.53097 4.26774L3.25064 4.93656C4.30884 3.79791 5.77485 3.1246 7.32811 3.06386L7.28972 2.08214ZM2.53097 4.26774L1.8113 3.59892C0.399488 5.11807 -0.353348 7.13445 -0.282585 9.20713L0.699313 9.17361L1.68121 9.14009C1.62817 7.58655 2.19245 6.07521 3.25064 4.93656L2.53097 4.26774ZM0.699313 9.17361H-0.283157C-0.283157 13.2363 2.62607 15.6973 4.98181 17.7453L5.6264 17.0039L6.27099 16.2624C3.78316 14.0996 1.68178 12.2044 1.68178 9.17361H0.699313ZM5.6264 17.0039L4.98185 17.7454C5.26154 17.9885 5.53737 18.2277 5.81093 18.4714L6.46445 17.7378L7.11797 17.0042C6.83348 16.7508 6.54734 16.5027 6.27095 16.2624L5.6264 17.0039ZM6.46445 17.7378L5.8097 18.4703L6.81869 19.3722L7.47344 18.6397L8.1282 17.9072L7.1192 17.0053L6.46445 17.7378ZM7.47344 18.6397L6.79619 19.3515C7.92105 20.4218 9.10033 21.4335 10.3293 22.3824L10.9298 21.6048L11.5302 20.8272C10.3547 19.9195 9.22665 18.9518 8.1507 17.928L7.47344 18.6397ZM10.9298 21.6048L10.3958 22.4295C10.873 22.7385 11.4293 22.9028 11.9977 22.9028V21.9204V20.9379C11.8082 20.9379 11.6228 20.8831 11.4637 20.7801L10.9298 21.6048ZM11.9977 21.9204V22.9028C12.5662 22.9028 13.1225 22.7385 13.5996 22.4295L13.0657 21.6048L12.5317 20.7801C12.3726 20.8831 12.1872 20.9379 11.9977 20.9379V21.9204ZM13.0657 21.6048L13.6656 22.3828C14.9336 21.405 16.149 20.3609 17.3068 19.2548L16.6281 18.5444L15.9494 17.834C14.8417 18.8923 13.6788 19.8913 12.4657 20.8268L13.0657 21.6048ZM16.6281 18.5444L17.2828 19.277L18.1886 18.4674L17.5339 17.7349L16.8793 17.0023L15.9734 17.8119L16.6281 18.5444ZM17.5339 17.7349L18.186 18.4697C18.4698 18.218 18.7582 17.9664 19.0459 17.7177L18.4034 16.9744L17.7609 16.2312C17.469 16.4835 17.1739 16.7409 16.8818 17L17.5339 17.7349ZM18.4034 16.9744L19.0473 17.7165C21.2728 15.7856 24.2786 13.2474 24.2786 9.17361H23.2961H22.3137C22.3137 12.2129 20.1202 14.1842 17.7596 16.2323L18.4034 16.9744ZM23.2961 9.17361L24.278 9.20713C24.3488 7.13445 23.596 5.11807 22.1841 3.59892L21.4645 4.26774L20.7448 4.93656C21.803 6.07521 22.3673 7.58655 22.3142 9.14009L23.2961 9.17361ZM21.4645 4.26774L22.1841 3.59892C20.7723 2.07977 18.8164 1.18146 16.7441 1.10042L16.7057 2.08214L16.6673 3.06386C18.2206 3.1246 19.6866 3.79791 20.7448 4.93656L21.4645 4.26774Z" fill="#6D758F" mask="url(#path-1-inside-1_224_23192)"/>
</svg>
