<?xml version="1.0" encoding="UTF-8"?>
<svg id="Capa_1" data-name="Capa 1" xmlns="http://www.w3.org/2000/svg" viewBox="0 0 766.4091 246.7687">
  <defs>
    <style>
      .cls-1 {
        stroke: #fff;
        stroke-miterlimit: 10;
        stroke-width: .3781px;
      }

      .cls-1, .cls-2 {
        fill: #fff;
      }

      .cls-3 {
        fill: #003865;
      }

      .cls-4 {
        fill: #036;
      }

      .cls-5 {
        fill: #003264;
      }
    </style>
  </defs>
  <ellipse class="cls-5" cx="141.5652" cy="133.2502" rx="28.6133" ry="28.6458"/>
  <g>
    <path class="cls-3" d="M287.7445,54.8603h16.3199l19.3916,41.5672,19.4878-41.5672h16.2237v67.1028h-15.8398v-33.6955l-16.0317,33.6955h-7.6799l-15.9357-33.6955v33.6955h-15.9357V54.8603Z"/>
    <path class="cls-3" d="M375.0072,115.2912c-5.121-5.4072-7.6799-12.5593-7.6799-21.4555v-38.9753h16.9917v39.1673c0,4.4804,1.1999,7.8719,3.5998,10.1758,2.4001,2.3041,5.712,3.4561,9.9358,3.4561s7.5194-1.1519,9.8879-3.4561c2.367-2.3039,3.5521-5.6954,3.5521-10.1758v-39.1673h16.9917v38.9753c0,8.9608-2.5441,16.1277-7.632,21.5035-5.0879,5.3761-12.6882,8.0638-22.7997,8.0638s-17.7281-2.7029-22.8474-8.1118Z"/>
    <path class="cls-3" d="M436.4455,54.8603h16.9917v52.7991h29.1835v14.3037h-46.1752V54.8603Z"/>
    <path class="cls-3" d="M487.4197,54.8603h16.9917v67.1028h-16.9917V54.8603Z"/>
    <path class="cls-3" d="M528.6029,69.164h-18.9117v-14.3037h54.9111v14.3037h-19.0077v52.7991h-16.9917v-52.7991Z"/>
    <path class="cls-3" d="M582.8414,54.8603h16.7038l26.7836,67.1028h-17.3759l-5.3758-13.8238h-24.7676l-5.3758,13.8238h-17.4718l26.8796-67.1028ZM599.3533,95.0836l-8.1598-22.5595-8.256,22.5595h16.4159Z"/>
  </g>
  <g>
    <path class="cls-3" d="M287.6738,147.7807h17.6127c4.6643,0,8.2635,1.1462,10.7968,3.4381,2.5335,2.2921,3.8002,5.6097,3.8002,9.9525,0,3.0969-.7644,5.7302-2.2921,7.9016-1.5288,2.1714-3.7002,3.7199-6.5142,4.6445l8.5649,16.2253h-7.8411l-8.143-15.4413h-8.3237v15.4413h-7.6604v-42.162ZM303.8994,168.1682c2.4927,0,4.503-.5826,6.0316-1.7493,1.5277-1.1658,2.2921-2.9151,2.2921-5.2476,0-4.7047-2.7747-7.0573-8.3237-7.0573h-8.5652v14.0542h8.5652Z"/>
    <path class="cls-3" d="M330.3481,189.0079c-2.5541-1.2263-4.534-2.9952-5.9413-5.308-1.4079-2.3118-2.1112-5.0564-2.1112-8.2334,0-3.0958.6937-5.7998,2.081-8.1127,1.3874-2.3118,3.3673-4.1016,5.9413-5.3683,2.573-1.2667,5.5492-1.8999,8.9271-1.8999s6.3427.6332,8.8967,1.8999c2.5532,1.2667,4.5334,3.0565,5.9415,5.3683,1.407,2.3129,2.1109,5.0169,2.1109,8.1127,0,3.177-.7039,5.9216-2.1109,8.2334-1.4081,2.3129-3.3883,4.0818-5.9415,5.308-2.5541,1.226-5.5189,1.8396-8.8967,1.8396s-6.3438-.6136-8.8969-1.8396ZM345.88,182.2522c1.6484-1.7493,2.4731-4.011,2.4731-6.7858,0-2.9347-.8144-5.2371-2.4429-6.9063-1.6286-1.6683-3.8508-2.5032-6.6651-2.5032s-5.0365.8349-6.6651,2.5032c-1.6286,1.6692-2.4429,3.9715-2.4429,6.9063,0,2.7747.8238,5.0365,2.4731,6.7858,1.6484,1.7493,3.8602,2.6239,6.6349,2.6239s4.9856-.8746,6.6349-2.6239Z"/>
    <path class="cls-3" d="M373.8071,189.8522c-1.77-.6633-3.4787-1.7584-5.1271-3.2872v3.3778h-7.3587v-44.5746h7.5999v18.4572c1.3666-1.2461,3.0255-2.181,4.9763-2.8049,1.9501-.623,4.0309-.9349,6.2429-.9349,2.9349,0,5.5586.654,7.8715,1.9603,2.3118,1.307,4.1213,3.127,5.4285,5.4586,1.3064,2.3325,1.9603,5.0064,1.9603,8.0223,0,3.0563-.654,5.7405-1.9603,8.0524-1.3073,2.3126-3.1168,4.1014-5.4285,5.3681-2.3129,1.2669-4.9365,1.9001-7.8715,1.9001-2.4532,0-4.5644-.3318-6.3333-.9953ZM385.0261,182.2823c1.7691-1.7283,2.654-3.9809,2.654-6.7554s-.8849-5.0461-2.654-6.8159c-1.7698-1.7691-4.0215-2.654-6.7554-2.654-2.1716,0-4.1121.5937-5.8208,1.7794-1.7096,1.1866-2.8858,2.7651-3.5287,4.7348v5.8509c.6834,1.9706,1.87,3.5389,3.5588,4.7047,1.689,1.1667,3.619,1.7493,5.7907,1.7493,2.7339,0,4.9856-.8644,6.7554-2.5938Z"/>
    <path class="cls-3" d="M406.7706,189.0079c-2.5541-1.2263-4.534-2.9952-5.9413-5.308-1.4079-2.3118-2.1112-5.0564-2.1112-8.2334,0-3.0958.6937-5.7998,2.081-8.1127,1.3874-2.3118,3.3673-4.1016,5.9413-5.3683,2.573-1.2667,5.5492-1.8999,8.9271-1.8999s6.3427.6332,8.8967,1.8999c2.5532,1.2667,4.5334,3.0565,5.9415,5.3683,1.407,2.3129,2.1109,5.0169,2.1109,8.1127,0,3.177-.7039,5.9216-2.1109,8.2334-1.4081,2.3129-3.3883,4.0818-5.9415,5.308-2.5541,1.226-5.5189,1.8396-8.8967,1.8396s-6.3438-.6136-8.8969-1.8396ZM422.3024,182.2522c1.6484-1.7493,2.4731-4.011,2.4731-6.7858,0-2.9347-.8144-5.2371-2.4429-6.9063-1.6286-1.6683-3.8508-2.5032-6.6651-2.5032s-5.0365.8349-6.6651,2.5032c-1.6286,1.6692-2.4429,3.9715-2.4429,6.9063,0,2.7747.8238,5.0365,2.4731,6.7858,1.6484,1.7493,3.8602,2.6239,6.6349,2.6239s4.9856-.8746,6.6349-2.6239Z"/>
    <path class="cls-3" d="M442.1468,188.1935c-1.6493-1.7689-2.4731-4.2618-2.4731-7.4792v-13.9334h-4.3428v-5.7904h4.3428v-8.6859h7.5999v8.6859h6.9366v5.7904h-6.9366v12.9682c0,1.8501.3412,3.1668,1.0255,3.9508.6832.7843,1.9302,1.1763,3.7397,1.1763,1.2459,0,2.4731-.2809,3.6793-.8445v5.7904c-1.7294.6834-3.8406,1.0255-6.3333,1.0255-3.177,0-5.5898-.8849-7.238-2.654Z"/>
    <path class="cls-3" d="M486.3577,186.8063c-3.1366-2.6937-4.7049-6.454-4.7049-11.2794,0-4.7444,1.3874-8.5049,4.1621-11.2794,2.7745-2.7747,6.7347-4.1619,11.8825-4.1619,3.3778,0,6.2626.6437,8.6555,1.93,2.3921,1.2874,4.192,3.046,5.3984,5.2779,1.2064,2.2317,1.8095,4.7755,1.8095,7.6301v3.4985h-24.6698c.5221,4.3033,4.2618,6.454,11.219,6.454,1.8492,0,3.7397-.1602,5.6699-.4826,1.9302-.3213,3.619-.7633,5.0666-1.3269v5.8507c-1.3675.5636-3.127,1.0255-5.2777,1.3874-2.1518.3619-4.2931.5429-6.4239.5429-5.389,0-9.6509-1.3468-12.7873-4.0412ZM506.383,173.2348c-.081-2.2921-.8954-4.061-2.4427-5.308-1.5485-1.2459-3.6701-1.8698-6.3636-1.8698-2.654,0-4.7453.6437-6.273,1.9302-1.5286,1.2874-2.3325,3.0365-2.4126,5.2476h17.492Z"/>
    <path class="cls-3" d="M525.7749,188.9474c-2.3129-1.2667-4.1224-3.0554-5.4288-5.3681-1.307-2.312-1.9603-4.9961-1.9603-8.0524,0-3.0159.6533-5.6898,1.9603-8.0223,1.3064-2.3316,3.1159-4.1516,5.4288-5.4586,2.3118-1.3064,4.9357-1.9603,7.8713-1.9603,4.7444,0,8.4842,1.2468,11.2192,3.7397v-18.4572h7.5999v44.5746h-7.3587v-3.3778c-1.6493,1.5288-3.358,2.6239-5.1269,3.2872-1.77.6636-3.8812.9953-6.3335.9953-2.9356,0-5.5595-.6332-7.8713-1.9001ZM541.3066,183.1268c1.689-1.1658,2.8745-2.7341,3.5588-4.7047v-5.8509c-.6437-1.9697-1.82-3.5483-3.5287-4.7348-1.7096-1.1857-3.6491-1.7794-5.8206-1.7794-2.735,0-4.9865.8849-6.7557,2.654s-2.654,4.0412-2.654,6.8159.8842,5.0271,2.654,6.7554c1.7691,1.7294,4.0206,2.5938,6.7557,2.5938,2.1714,0,4.1016-.5826,5.7904-1.7493Z"/>
    <path class="cls-3" d="M562.2969,187.6807c-1.9302-2.1109-2.8954-4.9158-2.8954-8.4141v-18.2763h7.6002v17.5522c0,4.2223,1.9697,6.3335,5.9111,6.3335,1.7285,0,3.3571-.4119,4.8857-1.2365,1.5277-.8238,2.8142-2.0603,3.8602-3.7096v-18.9396h7.6002v28.9524h-7.3587v-3.9207c-1.3675,1.6493-2.9961,2.8651-4.8857,3.6491-1.8907.7843-3.8812,1.1763-5.9716,1.1763-3.9008,0-6.8159-1.0556-8.7459-3.1668Z"/>
    <path class="cls-3" d="M603.342,189.038c-2.5541-1.2064-4.534-2.9557-5.9413-5.2476-1.4079-2.2921-2.1112-5.0461-2.1112-8.2635s.7135-5.981,2.1413-8.2938c1.4271-2.3118,3.4175-4.0807,5.9716-5.3078,2.5529-1.226,5.5387-1.8396,8.9572-1.8396,4.503,0,8.1022.8849,10.7968,2.6538v6.0921c-2.6145-1.849-5.9517-2.7745-10.0128-2.7745-3.0969,0-5.5595.7747-7.3889,2.3222-1.8303,1.5485-2.7446,3.9309-2.7446,7.1477,0,3.177.9143,5.5294,2.7446,7.0571,1.8294,1.5286,4.2522,2.2921,7.2682,2.2921,4.061,0,7.5596-.9652,10.4954-2.8952v6.0316c-1.4476.9652-3.0867,1.6794-4.916,2.1413-1.8303.4619-3.9508.6937-6.3634.6937-3.3778,0-6.3438-.6031-8.8969-1.8095Z"/>
    <path class="cls-3" d="M631.3595,188.1031c-2.212-1.8294-3.3176-4.292-3.3176-7.3889,0-3.2167,1.0453-5.7302,3.1366-7.5397,2.0904-1.8095,5.0262-2.7145,8.8064-2.7145,3.6587,0,6.8159.7446,9.4699,2.2319v-.784c0-2.0509-.6334-3.538-1.9001-4.4635-1.2667-.9246-3.308-1.3874-6.1222-1.3874-1.77,0-3.5191.1716-5.2476.5127-1.7294.342-3.2571.8142-4.5842,1.4175v-5.9716c1.2064-.5625,2.8247-1.0252,4.8556-1.3871,2.0302-.3619,3.9905-.5429,5.881-.5429,5.0262,0,8.7461,1.0761,11.1587,3.227,2.4128,2.1516,3.619,5.1374,3.619,8.9572v17.6729h-7.1778v-2.835c-1.2468,1.2064-2.6643,2.1319-4.2522,2.7747-1.5891.6426-3.5287.965-5.8208.965-3.4588,0-6.2938-.9141-8.5047-2.7444ZM646.3181,184.3031c1.3666-.6636,2.4128-1.5777,3.1366-2.7446v-3.1969c-2.212-1.5681-4.7453-2.3524-7.6002-2.3524-4.0619,0-6.0921,1.5683-6.0921,4.7049,0,1.5286.5127,2.6745,1.5382,3.4381,1.0255.7642,2.5032,1.1459,4.4334,1.1459,1.6888,0,3.2165-.3318,4.584-.9951Z"/>
    <path class="cls-3" d="M666.947,188.1935c-1.6493-1.7689-2.4731-4.2618-2.4731-7.4792v-13.9334h-4.3428v-5.7904h4.3428v-8.6859h7.5999v8.6859h6.9366v5.7904h-6.9366v12.9682c0,1.8501.3412,3.1668,1.0255,3.9508.6832.7843,1.9302,1.1763,3.7397,1.1763,1.2459,0,2.4731-.2809,3.6793-.8445v5.7904c-1.7294.6834-3.8406,1.0255-6.3333,1.0255-3.177,0-5.5898-.8849-7.238-2.654Z"/>
    <path class="cls-3" d="M687.1825,154.7173c-.8247-.8039-1.2365-1.8095-1.2365-3.0159s.4119-2.2214,1.2365-3.046c.8238-.8238,1.8396-1.2365,3.046-1.2365s2.2317.4128,3.0762,1.2365c.8445.8247,1.2667,1.8396,1.2667,3.046s-.4221,2.212-1.2667,3.0159c-.8445.8048-1.8698,1.2062-3.0762,1.2062s-2.2223-.4014-3.046-1.2062ZM686.3683,160.9904h7.7206v28.9524h-7.7206v-28.9524Z"/>
    <path class="cls-3" d="M700.6021,160.9904h7.6604l7.8414,20.0253,7.8411-20.0253h7.6604l-11.9428,28.9524h-7.1176l-11.943-28.9524Z"/>
    <path class="cls-3" d="M740.563,189.0079c-2.5541-1.2263-4.534-2.9952-5.9413-5.308-1.4079-2.3118-2.1112-5.0564-2.1112-8.2334,0-3.0958.6937-5.7998,2.081-8.1127,1.3874-2.3118,3.3673-4.1016,5.9413-5.3683,2.573-1.2667,5.5492-1.8999,8.9271-1.8999s6.3427.6332,8.8967,1.8999c2.5532,1.2667,4.5334,3.0565,5.9415,5.3683,1.407,2.3129,2.1109,5.0169,2.1109,8.1127,0,3.177-.7039,5.9216-2.1109,8.2334-1.4081,2.3129-3.3883,4.0818-5.9415,5.308-2.5541,1.226-5.5189,1.8396-8.8967,1.8396s-6.3438-.6136-8.8969-1.8396ZM756.0949,182.2522c1.6484-1.7493,2.4731-4.011,2.4731-6.7858,0-2.9347-.8144-5.2371-2.4429-6.9063-1.6286-1.6683-3.8508-2.5032-6.6651-2.5032s-5.0365.8349-6.6651,2.5032c-1.6286,1.6692-2.4429,3.9715-2.4429,6.9063,0,2.7747.8238,5.0365,2.4731,6.7858,1.6484,1.7493,3.8602,2.6239,6.6349,2.6239s4.9856-.8746,6.6349-2.6239Z"/>
  </g>
  <g>
    <path class="cls-3" d="M170.8462,246.7156l-74.9891.0517c-20.3897.1385-39.3038-10.6823-49.6167-28.3857L7.8377,152.4587c-10.3587-17.7819-10.4557-39.787-.2543-57.6607L44.9352,29.3543C55.0453,11.6404,73.7428.2068,94.0396.0702l75.9721-.054c20.548-.1383,39.5834,10.852,49.8374,28.774l37.569,65.6632c10.1406,17.7239,10.1521,39.5378.0301,57.2724l-37.5011,65.7054c-10.1095,17.7128-28.8053,29.1464-49.101,29.2842Z"/>
    <g>
      <path class="cls-2" d="M173.1703,133.2639c0,18.3169-14.7541,33.1662-32.9535,33.1662s-32.9521-14.8492-32.9521-33.1662,14.754-33.165,32.9521-33.165,32.9535,14.8494,32.9535,33.165ZM140.2194,107.0134c-14.4054,0-26.0833,11.7534-26.0833,26.2505s11.6779,26.2504,26.0833,26.2504,26.0806-11.7533,26.0806-26.2504-11.6779-26.2505-26.0806-26.2505Z"/>
      <path class="cls-1" d="M233.7153,107.2915c.4056,2.3162,1.5199,4.0538,2.4898,3.8823.9673-.1702,1.4245-2.1874,1.0189-4.5035-.4041-2.3161-1.5186-4.0538-2.4858-3.8835-.9698.1716-1.427,2.1887-1.0229,4.5047Z"/>
      <path class="cls-2" d="M183.9081,61.0203c.9712-3.2116-14.5333-10.8123-18.9575-9.5398-6.0733,13.7172-21.3103,88.4535-18.9574,88.0857,2.3529-.3677,9.9476,5.416,9.1623,3.816-.7851-1.5999,23.361-77.3098,28.7526-82.3618Z"/>
      <path class="cls-2" d="M158.278,50.0896c.3965-3.4481-16.7568-8.2961-21.0171-6.1776-3.6546,15.0794-5.4084,93.9241-3.0851,93.1132,2.3245-.8124,11.1045,3.6587,10.0121,2.177-1.0899-1.4804,9.5381-82.9727,14.0901-89.1126Z"/>
      <path class="cls-2" d="M128.4769,43.1907c-29.836-11.7923-74.3098,28.5185-75.6194,40.2341,38.3463,24.9442,48.6747,44.1008,51.9187,51.9251,11.5204-1.4154,28.9307,1.9053,27.5167.6459-1.4141-1.2594-4.2435-76.4312-3.8161-92.8051Z"/>
      <path class="cls-2" d="M54.1012,90.4369c15.7379,4.9051,53.1596,44.7986,47.9347,45.2562-30.0388,2.6254-114.8012,16.5778-90.7181,2.4851,24.0816-14.0955,30.1498-47.4567,42.7834-47.7412Z"/>
      <path class="cls-2" d="M185.1375,65.3367c1.498-4.3164,21.4407,29.6452,25.5654,33.7173,4.1246,4.0719,20.3573,2.9607,19.9131,4.0317-.895,7.2576,2.2573,8.2882,2.021,8.6847-.2363.3963-4.1763-.3172-7.8283-.2951-4.9369-1.2114,32.6163,38.5119,26.4475,43.4769-6.169,4.9648-30.9376-14.3294-43.198-15.9709-12.2604-1.6415-46.5336,7.5188-50.2502,5.3236-3.7167-2.1952,25.8315-74.6519,27.3295-78.9683Z"/>
      <polygon class="cls-2" points="15.9766 166.43 19.8856 173.1405 245.2261 173.1405 249.0561 166.43 15.9766 166.43"/>
    </g>
  </g>
  <path class="cls-4" d="M651.4113,66.7231c0,7.0052-5.3845,12.5038-12.3916,12.5038-6.9334,0-12.4654-5.4987-12.4654-12.5038,0-6.8545,5.532-12.3532,12.4654-12.3532,7.0072,0,12.3916,5.4987,12.3916,12.3532ZM629.6522,66.7231c0,5.4987,3.983,9.8675,9.4412,9.8675,5.3107,0,9.22-4.3688,9.22-9.7921,0-5.4987-3.9093-9.9428-9.2937-9.9428s-9.3675,4.4441-9.3675,9.8675ZM637.102,73.201h-2.8029v-12.3532c1.1064-.226,2.6553-.3766,4.6469-.3766,2.2865,0,3.3192.3766,4.2043.9039.6638.5273,1.1802,1.5065,1.1802,2.7117,0,1.3558-1.0326,2.4104-2.5078,2.8623v.1506c1.1802.4519,1.844,1.3558,2.2128,3.013.3688,1.8831.5901,2.6363.8851,3.0883h-3.0241c-.3688-.4519-.5901-1.5818-.9589-3.013-.2213-1.3558-.9589-1.9584-2.5078-1.9584h-1.3277v4.9714ZM637.1757,66.1958h1.3277c1.549,0,2.8029-.5273,2.8029-1.8078,0-1.1299-.8114-1.8831-2.5816-1.8831-.7376,0-1.2539.0753-1.549.1506v3.5402Z"/>
</svg>