<?xml version="1.0" encoding="UTF-8"?>
<svg id="Capa_1" data-name="Capa 1" xmlns="http://www.w3.org/2000/svg" viewBox="0 0 529.6348 368.1356">
  <defs>
    <style>
      .cls-1, .cls-2 {
        fill: #fff;
      }

      .cls-3 {
        fill: #003865;
      }

      .cls-4 {
        fill: #036;
      }

      .cls-2 {
        stroke: #fff;
        stroke-miterlimit: 10;
        stroke-width: .1458px;
      }
    </style>
  </defs>
  <g>
    <path class="cls-3" d="M142.1927,249.6347h14.4381l17.1558,36.7747,17.2406-36.7747h14.3533v59.366h-14.0134v-29.8104l-14.1834,29.8104h-6.7944l-14.0986-29.8104v29.8104h-14.0982v-59.366Z"/>
    <path class="cls-3" d="M216.8032,305.6035c-2.8025-3.1132-4.204-7.219-4.204-12.315v-25.0543h14.9476v23.3559c0,4.7001,2.1235,7.0491,6.3697,7.0491,1.9243,0,3.6801-.4525,5.2659-1.3589,1.5844-.9049,2.8877-2.236,3.9067-3.9918v-25.0543h14.9476v40.7665h-14.4381v-4.4165c-1.7554,1.8684-3.8789,3.2846-6.3697,4.2466-2.4923.9619-5.0956,1.4437-7.8137,1.4437-5.6051,0-9.809-1.5566-12.6119-4.6709Z"/>
    <path class="cls-3" d="M265.6799,246.2376h14.9476v62.7632h-14.9476v-62.7632Z"/>
    <path class="cls-3" d="M290.5636,260.5905c-1.5288-1.4714-2.293-3.3398-2.293-5.6051,0-2.2083.7642-4.0622,2.293-5.5632,1.5288-1.4992,3.4249-2.2505,5.6902-2.2505,2.2083,0,4.0899.7513,5.648,2.2505,1.5566,1.5011,2.3356,3.355,2.3356,5.5632s-.779,4.0633-2.3356,5.5629c-1.5581,1.5007-3.4398,2.2505-5.648,2.2505-2.2653,0-4.1614-.735-5.6902-2.2083ZM288.78,268.2342h14.9476v40.7665h-14.9476v-40.7665Z"/>
    <path class="cls-3" d="M318.1231,306.0704c-2.577-2.8025-3.8645-6.6377-3.8645-11.5078v-15.9669h-5.775v-10.3615h5.775v-12.2298h14.9479v12.2298h9.3421v10.3615h-9.3421v13.9286c0,2.2083.4099,3.7937,1.2315,4.756.8198.9634,2.2782,1.4437,4.3736,1.4437,1.8687,0,3.7371-.5095,5.6054-1.5288v11.1261c-1.4729.6794-3.0439,1.1745-4.7135,1.4862-1.6706.3103-3.7237.4669-6.1575.4669-5.04,0-8.8471-1.4011-11.423-4.204Z"/>
    <path class="cls-3" d="M346.4039,306.5803c-3.1424-2.463-4.7138-5.9028-4.7138-10.3193,0-4.5861,1.5144-8.1106,4.5439-10.5736,3.0284-2.463,7.3742-3.6945,13.0366-3.6945,2.2083,0,4.4165.2414,6.6248.722,2.2079.4817,4.1044,1.1186,5.6902,1.9109v-.8494c0-4.3591-3.5671-6.5396-10.7014-6.5396-4.983,0-9.5413.9634-13.6735,2.8877v-10.2767c1.8113-.849,4.1895-1.5418,7.1339-2.0805,2.9436-.5376,6.0009-.8068,9.1726-.8068,7.5867,0,13.3195,1.5155,17.1984,4.5435,3.8774,3.0299,5.8176,7.2616,5.8176,12.6971v24.7996h-14.0134v-3.4823c-1.5288,1.4733-3.4542,2.633-5.7754,3.4823-2.3223.8494-4.983,1.2737-7.9833,1.2737-5.0959,0-9.2148-1.2315-12.3572-3.6941ZM368.1032,300.0407c1.5288-.7076,2.6889-1.6269,3.4823-2.7603v-3.5671c-2.4352-1.6414-5.21-2.463-8.3232-2.463-1.9828,0-3.5112.4247-4.5861,1.2741-1.0764.8494-1.614,2.0953-1.614,3.7367,0,1.5288.5232,2.7177,1.5714,3.5671,1.0471.8494,2.5611,1.2741,4.5439,1.2741,1.7543,0,3.3972-.3532,4.9256-1.0615Z"/>
  </g>
  <g>
    <path class="cls-3" d="M0,320.49h19.4855c5.16,0,9.1422,1.2678,11.9447,3.8034,2.8025,2.5359,4.204,6.206,4.204,11.0106,0,3.4264-.8457,6.3397-2.5356,8.7419-1.6914,2.4023-4.0936,4.1151-7.2072,5.1382l9.4758,17.9504h-8.6749l-9.0085-17.0829h-9.2088v17.0829H0v-46.6444ZM17.9508,343.0447c2.7577,0,4.9819-.6443,6.6729-1.935,1.6903-1.29,2.5359-3.225,2.5359-5.8057,0-5.2048-3.0699-7.8074-9.2088-7.8074h-9.4758v15.5481h9.4758Z"/>
    <path class="cls-3" d="M47.2117,366.1003c-2.8255-1.3566-5.0163-3.3135-6.5729-5.8724-1.5577-2.5578-2.3356-5.594-2.3356-9.1089,0-3.4249.7676-6.4163,2.3023-8.9752,1.5347-2.5574,3.7252-4.5376,6.5729-5.939,2.8462-1.4011,6.139-2.102,9.8761-2.102s7.0173.7009,9.8427,2.102c2.8244,1.4015,5.0152,3.3816,6.5729,5.939,1.5566,2.5589,2.3356,5.5503,2.3356,8.9752,0,3.5149-.779,6.5511-2.3356,9.1089-1.5577,2.5589-3.7486,4.5157-6.5729,5.8724-2.8255,1.3563-6.106,2.0353-9.8427,2.0353s-7.0184-.6791-9.8427-2.0353ZM64.3949,358.6265c1.8236-1.9354,2.7359-4.4376,2.7359-7.5075,0-3.2468-.9009-5.7939-2.7026-7.6404-1.8017-1.8454-4.2606-2.7692-7.3738-2.7692s-5.5721.9238-7.3738,2.7692c-1.8017,1.8465-2.7026,4.3936-2.7026,7.6404,0,3.0699.9112,5.5721,2.7359,7.5075,1.8236,1.935,4.271,2.9025,7.3405,2.9025s5.5158-.9675,7.3405-2.9025Z"/>
    <path class="cls-3" d="M95.2913,367.0345c-1.9583-.7342-3.8485-1.9457-5.6721-3.6367v3.7367h-8.1414v-49.3137h8.4083v20.4193c1.5118-1.3781,3.3468-2.4126,5.5051-3.1028,2.1572-.6894,4.4595-1.0345,6.9065-1.0345,3.2468,0,6.1497.7239,8.7086,2.169,2.5574,1.4459,4.5594,3.4594,6.0057,6.039,1.4451,2.5807,2.1686,5.5388,2.1686,8.8752,0,3.3813-.7235,6.3508-2.1686,8.9086-1.4463,2.5585-3.4483,4.5376-6.0057,5.939-2.5589,1.4011-5.4618,2.102-8.7086,2.102-2.714,0-5.0497-.3673-7.0065-1.1012ZM107.7029,358.6598c1.9572-1.9124,2.9362-4.4043,2.9362-7.4738s-.979-5.5825-2.9362-7.5408c-1.958-1.9568-4.4487-2.9358-7.4738-2.9358-2.4023,0-4.5491.6568-6.4393,1.9683-1.8913,1.3126-3.1928,3.0591-3.9037,5.2385v6.4726c.7557,2.1805,2.0687,3.9155,3.937,5.2052,1.8684,1.2907,4.0037,1.935,6.4059,1.935,3.0251,0,5.5158-.956,7.4738-2.8692Z"/>
    <path class="cls-3" d="M131.7593,366.1003c-2.8255-1.3566-5.0163-3.3135-6.5729-5.8724-1.5577-2.5578-2.3356-5.594-2.3356-9.1089,0-3.4249.7676-6.4163,2.3023-8.9752,1.5347-2.5574,3.7252-4.5376,6.5729-5.939,2.8462-1.4011,6.139-2.102,9.8761-2.102s7.0173.7009,9.8427,2.102c2.8244,1.4015,5.0152,3.3816,6.5729,5.939,1.5566,2.5589,2.3356,5.5503,2.3356,8.9752,0,3.5149-.779,6.5511-2.3356,9.1089-1.5577,2.5589-3.7486,4.5157-6.5729,5.8724-2.8255,1.3563-6.106,2.0353-9.8427,2.0353s-7.0184-.6791-9.8427-2.0353ZM148.9426,358.6265c1.8236-1.9354,2.7359-4.4376,2.7359-7.5075,0-3.2468-.9009-5.7939-2.7026-7.6404-1.8017-1.8454-4.2606-2.7692-7.3738-2.7692s-5.5721.9238-7.3738,2.7692c-1.8017,1.8465-2.7026,4.3936-2.7026,7.6404,0,3.0699.9112,5.5721,2.7359,7.5075,1.8236,1.935,4.271,2.9025,7.3405,2.9025s5.5158-.9675,7.3405-2.9025Z"/>
    <path class="cls-3" d="M170.897,365.1994c-1.8247-1.9572-2.7359-4.7149-2.7359-8.2747v-15.4148h-4.8049v-6.4059h4.8049v-9.6095h8.408v9.6095h7.6741v6.4059h-7.6741v14.347c0,2.0468.3773,3.5034,1.1345,4.371.7557.8675,2.1353,1.3011,4.1373,1.3011,1.3781,0,2.7359-.3107,4.0703-.9342v6.4063c-1.9132.7557-4.2488,1.1345-7.0065,1.1345-3.5149,0-6.1842-.9793-8.0077-2.9362Z"/>
    <path class="cls-3" d="M219.8082,363.6647c-3.4697-2.9803-5.2048-7.1402-5.2048-12.4787,0-5.2489,1.5347-9.4092,4.6042-12.4787,3.0699-3.0695,7.4512-4.6046,13.1462-4.6046,3.7367,0,6.9284.7124,9.5758,2.1357,2.6463,1.424,4.6376,3.3698,5.9724,5.8387,1.3344,2.4689,2.0016,5.2833,2.0016,8.4413v3.8704h-27.2926c.5776,4.7609,4.7149,7.1402,12.412,7.1402,2.0453,0,4.137-.177,6.2727-.5336,2.1353-.3558,4.0037-.8446,5.6051-1.4681v6.4726c-1.5129.6235-3.4594,1.1345-5.8387,1.5351-2.3804.4003-4.7494.6006-7.1069.6006-5.962,0-10.6769-1.4899-14.1471-4.4709ZM241.963,348.6501c-.0896-2.5356-.9905-4.4928-2.7026-5.8724-1.7132-1.3781-4.0603-2.0683-7.0402-2.0683-2.9362,0-5.2496.712-6.9399,2.1353-1.6914,1.424-2.5807,3.3594-2.6692,5.8054h19.3519Z"/>
    <path class="cls-3" d="M263.4161,366.0337c-2.5585-1.4015-4.5605-3.3805-6.0057-5.939-1.4463-2.5578-2.1686-5.5273-2.1686-8.9086,0-3.3365.7224-6.2945,2.1686-8.8752,1.4451-2.5796,3.4472-4.5931,6.0057-6.039,2.5578-1.4451,5.4607-2.169,8.7086-2.169,5.2485,0,9.3858,1.3796,12.4116,4.1373v-20.4193h8.4083v49.3137h-8.1414v-3.7367c-1.8247,1.691-3.7149,2.9025-5.6721,3.6367-1.958.7339-4.2936,1.1012-7.0065,1.1012-3.248,0-6.1508-.7009-8.7086-2.102ZM280.5994,359.594c1.8684-1.2896,3.1802-3.0247,3.937-5.2052v-6.4726c-.712-2.1794-2.0131-3.9259-3.9037-5.2385-1.8913-1.3115-4.037-1.9683-6.4393-1.9683-3.0258,0-5.5169.979-7.4742,2.9358-1.958,1.9583-2.9358,4.4709-2.9358,7.5408s.9779,5.5614,2.9358,7.4738c1.9572,1.9132,4.4484,2.8692,7.4742,2.8692,2.4023,0,4.5376-.6443,6.4059-1.935Z"/>
    <path class="cls-3" d="M303.8212,364.6322c-2.1353-2.3356-3.2032-5.4384-3.2032-9.3088v-20.2194h8.4083v19.4185c0,4.6713,2.179,7.0065,6.5392,7.0065,1.9124,0,3.7141-.4554,5.4055-1.3678,1.6899-.9112,3.1132-2.2793,4.2706-4.104v-20.9533h8.408v32.0305h-8.141v-4.3373c-1.5129,1.8247-3.3146,3.1695-5.4051,4.037-2.0916.8675-4.294,1.3015-6.6063,1.3015-4.3158,0-7.5408-1.1678-9.6761-3.5034Z"/>
    <path class="cls-3" d="M349.2305,366.1336c-2.8255-1.3348-5.0163-3.2698-6.5729-5.8057-1.5577-2.5356-2.3356-5.5821-2.3356-9.1418s.7894-6.617,2.369-9.1755c1.5784-2.5578,3.7808-4.5146,6.6063-5.8724,2.8247-1.3563,6.1279-2.0353,9.9094-2.0353,4.9819,0,8.9641.9793,11.9447,2.9362v6.7399c-2.8921-2.0457-6.5844-3.0695-11.0772-3.0695-3.4261,0-6.1505.8568-8.1743,2.5689-2.025,1.7132-3.0362,4.3491-3.0362,7.9077,0,3.5146,1.0112,6.1171,3.0362,7.8074,2.0239,1.691,4.7046,2.5356,8.041,2.5356,4.4928,0,8.3632-1.0675,11.6111-3.2028v6.6729c-1.6018,1.0678-3.4149,1.858-5.4384,2.369-2.025.511-4.371.7676-7.0402.7676-3.7371,0-7.0184-.6676-9.8427-2.002Z"/>
    <path class="cls-3" d="M380.2268,365.0991c-2.4471-2.0235-3.6701-4.7483-3.6701-8.1743,0-3.5586,1.1563-6.3393,3.4701-8.3413,2.3123-2.002,5.5603-3.0028,9.7424-3.0028,4.0477,0,7.5408.8238,10.4766,2.4689v-.8675c0-2.2686-.7005-3.9141-2.102-4.9378-1.4011-1.023-3.6597-1.5347-6.7729-1.5347-1.9583,0-3.8933.1896-5.8057.5669-1.9132.3788-3.6034.9009-5.0715,1.5684v-6.6063c1.3348-.6228,3.125-1.1345,5.3718-1.5351,2.246-.4003,4.4147-.6006,6.5063-.6006,5.5606,0,9.6761,1.1908,12.345,3.5701,2.6692,2.3804,4.004,5.6836,4.004,9.9098v19.5518h-7.9411v-3.1361c-1.3792,1.3344-2.9477,2.3586-4.7046,3.0695-1.7576.7113-3.9037,1.0678-6.4393,1.0678-3.8267,0-6.9628-1.0116-9.4092-3.0365ZM396.7761,360.8951c1.5118-.7339,2.6692-1.7454,3.4697-3.0362v-3.5368c-2.4471-1.7351-5.2496-2.6022-8.408-2.6022-4.4939,0-6.7396,1.7347-6.7396,5.2048,0,1.6914.5672,2.9592,1.7014,3.8037,1.1345.8457,2.7696,1.2678,4.9049,1.2678,1.8684,0,3.5586-.3669,5.0715-1.1012Z"/>
    <path class="cls-3" d="M419.5981,365.1994c-1.8247-1.9572-2.7359-4.7149-2.7359-8.2747v-15.4148h-4.8049v-6.4059h4.8049v-9.6095h8.408v9.6095h7.6741v6.4059h-7.6741v14.347c0,2.0468.3773,3.5034,1.1345,4.371.7557.8675,2.1353,1.3011,4.1373,1.3011,1.3781,0,2.7359-.3107,4.0703-.9342v6.4063c-1.9132.7557-4.2488,1.1345-7.0065,1.1345-3.5149,0-6.1842-.9793-8.0077-2.9362Z"/>
    <path class="cls-3" d="M441.9851,328.1637c-.9123-.8894-1.3681-2.0016-1.3681-3.3365s.4558-2.4574,1.3681-3.3698c.9112-.9112,2.0353-1.3681,3.3698-1.3681s2.4693.4569,3.4035,1.3681c.9342.9123,1.4011,2.0353,1.4011,3.3698s-.4669,2.4471-1.4011,3.3365c-.9342.8905-2.0687,1.3348-3.4035,1.3348s-2.4586-.4443-3.3698-1.3348ZM441.0842,335.104h8.5416v32.0305h-8.5416v-32.0305Z"/>
    <path class="cls-3" d="M456.8315,335.104h8.4746l8.6753,22.1544,8.6749-22.1544h8.4746l-13.2125,32.0305h-7.8744l-13.2125-32.0305Z"/>
    <path class="cls-3" d="M501.0408,366.1003c-2.8255-1.3566-5.0163-3.3135-6.5729-5.8724-1.5577-2.5578-2.3356-5.594-2.3356-9.1089,0-3.4249.7676-6.4163,2.3023-8.9752,1.5347-2.5574,3.7252-4.5376,6.5729-5.939,2.8462-1.4011,6.139-2.102,9.8761-2.102s7.0173.7009,9.8427,2.102c2.8244,1.4015,5.0152,3.3816,6.5729,5.939,1.5566,2.5589,2.3356,5.5503,2.3356,8.9752,0,3.5149-.779,6.5511-2.3356,9.1089-1.5577,2.5589-3.7486,4.5157-6.5729,5.8724-2.8255,1.3563-6.106,2.0353-9.8427,2.0353s-7.0184-.6791-9.8427-2.0353ZM518.224,358.6265c1.8236-1.9354,2.7359-4.4376,2.7359-7.5075,0-3.2468-.9009-5.7939-2.7026-7.6404-1.8017-1.8454-4.2606-2.7692-7.3738-2.7692s-5.5721.9238-7.3738,2.7692c-1.8017,1.8465-2.7026,4.3936-2.7026,7.6404,0,3.0699.9112,5.5721,2.7359,7.5075,1.8236,1.935,4.271,2.9025,7.3405,2.9025s5.5158-.9675,7.3405-2.9025Z"/>
  </g>
  <g>
    <path class="cls-3" d="M299.5185,227.8756l-69.1946.0477c-18.8142.1278-36.2667-9.8568-45.7828-26.1923l-35.4352-60.8289c-9.5582-16.4079-9.6478-36.7125-.2347-53.2052l34.4655-60.3868C192.6657,10.9651,209.9184.415,228.6469.289l70.1016-.0498c18.9602-.1276,36.5247,10.0134,45.9864,26.5506l34.666,60.5893c9.3571,16.3543,9.3676,36.4826.0278,52.8469l-34.6034,60.6283c-9.3283,16.3441-26.5795,26.8942-45.3068,27.0214Z"/>
    <g>
      <path class="cls-1" d="M301.663,123.1905c0,16.9015-13.6141,30.6034-30.4072,30.6034s-30.4058-13.7018-30.4058-30.6034,13.6139-30.6023,30.4058-30.6023,30.4072,13.7019,30.4072,30.6023ZM271.2583,98.9684c-13.2923,0-24.0678,10.8452-24.0678,24.2221s10.7755,24.2219,24.0678,24.2219,24.0653-10.8451,24.0653-24.2219-10.7755-24.2221-24.0653-24.2221Z"/>
      <path class="cls-2" d="M357.5295,99.2251c.3742,2.1372,1.4025,3.7406,2.2974,3.5823.8926-.1571,1.3144-2.0183.9402-4.1555-.3729-2.1371-1.4012-3.7406-2.2937-3.5834-.8949.1583-1.3167,2.0196-.9438,4.1566Z"/>
      <path class="cls-1" d="M311.5711,56.5293c.8961-2.9635-13.4103-9.9768-17.4927-8.8027-5.604,12.6572-19.6636,81.6186-17.4925,81.2791,2.1711-.3393,9.1789,4.9975,8.4543,3.5211-.7244-1.4763,21.5559-71.336,26.5309-75.9976Z"/>
      <path class="cls-1" d="M287.9214,46.4433c.3658-3.1817-15.462-7.655-19.3931-5.7002-3.3722,13.9141-4.9905,86.6664-2.8467,85.9182,2.1449-.7496,10.2464,3.376,9.2384,2.0088-1.0057-1.366,8.8011-76.5613,13.0014-82.2267Z"/>
      <path class="cls-1" d="M260.4231,40.0775c-27.5306-10.8811-68.5678,26.3148-69.7761,37.1251,35.3832,23.0167,44.9135,40.6931,47.9069,47.9127,10.6302-1.3061,26.6952,1.7581,25.3905.596-1.3049-1.1621-3.9156-70.5252-3.5212-85.6339Z"/>
      <path class="cls-1" d="M191.7946,83.6728c14.5218,4.526,49.0519,41.3369,44.2307,41.7591-27.7176,2.4225-105.9303,15.2968-83.7081,2.2931,22.2208-13.0064,27.8201-43.7896,39.4775-44.0522Z"/>
      <path class="cls-1" d="M312.7055,60.5122c1.3822-3.9829,19.7839,27.3545,23.5899,31.1119,3.8059,3.7573,18.7842,2.732,18.3744,3.7202-.8258,6.6968,2.0829,7.6478,1.8648,8.0136-.218.3657-3.8536-.2926-7.2234-.2723-4.5555-1.1178,30.096,35.536,24.4038,40.1173-5.6923,4.5812-28.547-13.2221-39.86-14.7368-11.313-1.5147-42.9379,6.9379-46.3672,4.9123-3.4295-2.0256,23.8355-68.8834,25.2177-72.8662Z"/>
      <polygon class="cls-1" points="156.6159 153.7938 160.2229 159.9857 368.1509 159.9857 371.6849 153.7938 156.6159 153.7938"/>
    </g>
  </g>
  <path class="cls-4" d="M406.1707,256.536c0,5.5342-4.2538,9.8783-9.7896,9.8783-5.4775,0-9.8479-4.3441-9.8479-9.8783,0-5.4152,4.3704-9.7593,9.8479-9.7593,5.5358,0,9.7896,4.3441,9.7896,9.7593ZM388.9805,256.536c0,4.3441,3.1467,7.7955,7.4588,7.7955,4.1956,0,7.284-3.4514,7.284-7.736,0-4.3441-3.0884-7.855-7.3422-7.855s-7.4005,3.511-7.4005,7.7955ZM394.866,261.6536h-2.2143v-9.7593c.8741-.1785,2.0978-.2975,3.6711-.2975,1.8064,0,2.6222.2975,3.3215.7141.5244.4166.9323,1.1902.9323,2.1423,0,1.0711-.8158,1.9042-1.9812,2.2613v.119c.9323.357,1.4568,1.0711,1.7482,2.3803.2914,1.4877.4662,2.0828.6993,2.4398h-2.3891c-.2914-.357-.4662-1.2497-.7575-2.3803-.1748-1.0711-.7575-1.5472-1.9812-1.5472h-1.0489v3.9275ZM394.9243,256.1194h1.0489c1.2237,0,2.2143-.4166,2.2143-1.4282,0-.8926-.641-1.4877-2.0395-1.4877-.5827,0-.9906.0595-1.2237.119v2.7969Z"/>
</svg>