<?xml version="1.0" encoding="UTF-8"?>
<svg id="Capa_1" data-name="Capa 1" xmlns="http://www.w3.org/2000/svg" viewBox="0 0 238.5392 220.937">
  <defs>
    <style>
      .cls-1, .cls-2 {
        fill: #fff;
      }

      .cls-3 {
        fill: #036;
      }

      .cls-2 {
        stroke: #fff;
        stroke-miterlimit: 10;
        stroke-width: .1458px;
      }
    </style>
  </defs>
  <g>
    <path class="cls-3" d="M154.1861,220.8896l-67.0925.0463c-18.2426.1239-35.165-9.5574-44.3919-25.3966l-34.3587-58.9811c-9.2679-15.9094-9.3547-35.5973-.2275-51.5889L41.5339,26.417C50.5794,10.5685,67.3079.3388,85.4675.2166l67.972-.0483c18.3842-.1237,35.4151,9.7092,44.5894,25.7441l33.6129,58.7487c9.0728,15.8575,9.0831,35.3743.027,51.2415l-33.5522,58.7865c-9.0449,15.8476-25.772,26.0772-43.9305,26.2005Z"/>
    <g>
      <path class="cls-1" d="M156.2655,119.3846c0,16.3881-13.2005,29.6737-29.4834,29.6737s-29.4821-13.2856-29.4821-29.6737,13.2003-29.6726,29.4821-29.6726,29.4834,13.2857,29.4834,29.6726ZM126.7844,95.8983c-12.8885,0-23.3366,10.5157-23.3366,23.4862s10.4482,23.4861,23.3366,23.4861,23.3343-10.5156,23.3343-23.4861-10.4482-23.4862-23.3343-23.4862Z"/>
      <path class="cls-2" d="M210.4349,96.1472c.3629,2.0723,1.3599,3.6269,2.2276,3.4735.8655-.1523,1.2745-1.957.9116-4.0293-.3616-2.0722-1.3587-3.6269-2.224-3.4745-.8677.1535-1.2767,1.9582-.9151,4.0304Z"/>
      <path class="cls-1" d="M165.8726,54.7485c.8689-2.8734-13.0029-9.6738-16.9613-8.5353-5.4337,12.2727-19.0663,79.1391-16.9611,78.81,2.1051-.329,8.9,4.8457,8.1975,3.4142-.7024-1.4314,20.9011-69.1689,25.7249-73.6889Z"/>
      <path class="cls-1" d="M142.9414,44.9689c.3547-3.085-14.9923-7.4225-18.804-5.527-3.2698,13.4915-4.8389,84.0336-2.7602,83.3081,2.0797-.7268,9.9352,3.2734,8.9578,1.9477-.9751-1.3245,8.5337-74.2354,12.6064-79.7288Z"/>
      <path class="cls-1" d="M116.2784,38.7964c-26.6942-10.5505-66.4848,25.5154-67.6564,35.9973,34.3083,22.3175,43.5491,39.4569,46.4515,46.4572,10.3073-1.2664,25.8843,1.7047,24.6191.5779-1.2652-1.1268-3.7966-68.3827-3.4143-83.0324Z"/>
      <path class="cls-1" d="M49.7347,81.0674c14.0807,4.3886,47.5618,40.0812,42.887,40.4906-26.8756,2.3489-102.7123,14.8321-81.1652,2.2234,21.5457-12.6112,26.975-42.4594,38.2782-42.7139Z"/>
      <path class="cls-1" d="M166.9725,58.6103c1.3402-3.8619,19.1829,26.5235,22.8733,30.1668,3.6903,3.6431,18.2136,2.649,17.8162,3.6072-.8007,6.4933,2.0196,7.4155,1.8082,7.7702-.2114.3546-3.7365-.2838-7.004-.264-4.4171-1.0838,29.1817,34.4565,23.6625,38.8986-5.5194,4.442-27.6798-12.8205-38.6491-14.2891-10.9693-1.4687-41.6335,6.7271-44.9587,4.763-3.3253-1.964,23.1114-66.7908,24.4516-70.6527Z"/>
      <polygon class="cls-1" points="15.6247 149.0583 19.1221 155.0621 220.7336 155.0621 224.1602 149.0583 15.6247 149.0583"/>
    </g>
  </g>
  <path class="cls-3" d="M238.5392,12.4242c0,7.0455-5.4154,12.5758-12.4629,12.5758-6.9733,0-12.5371-5.5303-12.5371-12.5758,0-6.8939,5.5638-12.4242,12.5371-12.4242,7.0475,0,12.4629,5.5303,12.4629,12.4242ZM216.655,12.4242c0,5.5303,4.0059,9.9242,9.4955,9.9242,5.3412,0,9.273-4.3939,9.273-9.8485,0-5.5303-3.9318-10-9.3472-10s-9.4214,4.4697-9.4214,9.9242ZM224.1476,18.9394h-2.819V6.5152c1.1128-.2273,2.6706-.3788,4.6736-.3788,2.2997,0,3.3383.3788,4.2285.9091.6677.5303,1.1869,1.5152,1.1869,2.7273,0,1.3636-1.0386,2.4242-2.5223,2.8788v.1515c1.1869.4545,1.8546,1.3636,2.2255,3.0303.3709,1.8939.5935,2.6515.8902,3.1061h-3.0415c-.3709-.4545-.5935-1.5909-.9644-3.0303-.2226-1.3636-.9644-1.9697-2.5223-1.9697h-1.3353v5ZM224.2217,11.8939h1.3353c1.5579,0,2.819-.5303,2.819-1.8182,0-1.1364-.816-1.8939-2.5964-1.8939-.7418,0-1.2611.0758-1.5579.1515v3.5606Z"/>
</svg>